<svg width="240" height="240" viewBox="0 0 240 240" fill="none" xmlns="http://www.w3.org/2000/svg">
<rect width="240" height="240" rx="8" fill="white"/>
<path d="M143.422 86.3347H123.644V82.5318C127.977 81.0227 131.089 76.9179 131.089 72.0768C131.089 65.9559 126.121 61 120 61C113.879 61 108.911 65.9619 108.911 72.0768C108.911 76.9179 112.023 81.0227 116.356 82.5318V86.3347H96.5777C76.4065 86.3347 60 102.723 60 122.873C60 143.022 76.4065 159.411 96.5777 159.411H143.422C163.587 159.411 180 143.022 180 122.873C180 102.723 163.594 86.3347 143.422 86.3347ZM120 68.2799C122.097 68.2799 123.801 69.9821 123.801 72.0768C123.801 74.1714 122.097 75.8736 120 75.8736C117.903 75.8736 116.199 74.1714 116.199 72.0768C116.199 69.9821 117.903 68.2799 120 68.2799ZM143.422 152.125H96.5777C80.4311 152.125 67.2938 139.002 67.2938 122.873C67.2938 106.744 80.4311 93.6206 96.5777 93.6206H143.422C159.569 93.6206 172.706 106.744 172.706 122.873C172.706 139.002 159.569 152.125 143.422 152.125Z" fill="#1D49F4"/>
<path d="M94.161 103.664C84.1721 103.664 76.0746 111.753 76.0746 121.731C76.0746 131.709 84.1721 139.798 94.161 139.798C104.15 139.798 112.247 131.709 112.247 121.731C112.247 111.753 104.15 103.664 94.161 103.664ZM94.161 132.512C88.2087 132.512 83.3683 127.677 83.3683 121.731C83.3683 115.785 88.2087 110.95 94.161 110.95C100.113 110.95 104.954 115.785 104.954 121.731C104.954 127.677 100.113 132.512 94.161 132.512Z" fill="#1D49F4"/>
<path d="M145.84 103.665C135.851 103.665 127.754 111.753 127.754 121.732C127.754 131.71 135.851 139.798 145.84 139.798C155.829 139.798 163.927 131.71 163.927 121.732C163.927 111.753 155.829 103.665 145.84 103.665ZM145.84 132.513C139.888 132.513 135.048 127.677 135.048 121.732C135.048 115.786 139.888 110.951 145.84 110.951C151.792 110.951 156.633 115.786 156.633 121.732C156.633 127.677 151.792 132.513 145.84 132.513Z" fill="#1D49F4"/>
<path d="M125.44 139.877C124.171 141.048 122.322 141.646 119.941 141.646C117.56 141.646 115.777 141.073 114.508 139.944C113.009 138.604 110.701 138.736 109.366 140.239C108.024 141.743 108.157 144.042 109.662 145.376C111.481 146.994 114.738 148.926 119.941 148.926C125.144 148.926 128.558 146.916 130.389 145.226C131.869 143.861 131.96 141.555 130.588 140.083C129.217 138.61 126.914 138.519 125.44 139.883V139.877Z" fill="#1D49F4"/>
</svg>
