<svg width="150" height="150" viewBox="0 0 150 150" fill="none" xmlns="http://www.w3.org/2000/svg">
<rect width="150" height="150" fill="none"/>
<path d="M75.1097 123C67.9597 123 61.3598 118.915 58.1698 112.512C57.7298 111.739 58.1698 110.745 58.9398 110.303H59.0498L62.6798 108.868C63.4498 108.537 64.3297 108.868 64.6597 109.641C67.7397 115.492 74.9997 117.701 80.7197 114.499C82.8096 113.395 84.4596 111.628 85.5596 109.641C85.8896 108.868 86.7696 108.537 87.5396 108.868L91.1696 110.303C92.0496 110.635 92.3796 111.628 92.0496 112.401V112.512C88.8596 118.915 82.2596 123 75.1097 123ZM97.5496 34.1243H78.6297V23.5254C84.3496 21.5381 87.4296 15.2451 85.5596 9.50403C83.5796 3.76299 77.3097 0.671663 71.5897 2.54854C65.8697 4.42542 62.7898 10.8289 64.6597 16.5699C65.7597 19.7717 68.2897 22.4214 71.5897 23.5254V34.1243H52.6698C34.6299 34.2347 20 48.8081 20 66.9144C20 85.0208 34.6299 99.5942 52.5598 99.5942H97.4396C115.479 99.5942 129.999 84.9104 129.999 66.804C130.109 48.8081 115.479 34.2347 97.5496 34.1243ZM75.1097 9.17282C77.3097 9.17282 79.0697 10.9393 79.0697 13.1474C79.0697 15.3555 77.3097 17.122 75.1097 17.122C72.9097 17.122 71.1497 15.3555 71.1497 13.1474C71.1497 10.9393 72.9097 9.17282 75.1097 9.17282ZM97.5496 92.5283H70.4897C62.1298 92.5283 54.3198 88.3329 49.5898 81.4879C57.6198 83.3647 65.6497 78.2861 67.5197 70.1162C69.3897 62.0566 64.3298 53.9971 56.1898 52.1202C48.1598 50.2433 40.1299 55.322 38.2599 63.4919C38.0399 64.5959 37.9299 65.7 37.9299 66.804C37.9299 76.7405 42.4399 86.1248 50.1398 92.3075C36.0599 90.9827 25.83 78.3965 27.26 64.2647C28.58 51.237 39.5799 41.3006 52.5598 41.1902H79.6197C87.9796 41.1902 95.7896 45.3855 100.52 52.2306C99.4196 52.0098 98.3196 51.8994 97.2196 51.8994C88.9696 51.8994 82.2596 58.6341 82.2596 66.9144C82.2596 75.1948 88.9696 81.9295 97.2196 81.9295C105.47 81.9295 112.179 75.1948 112.179 66.9144C112.179 56.978 107.67 47.5936 99.9695 41.411C114.049 42.8462 124.279 55.4324 122.849 69.5642C121.529 82.5919 110.639 92.5283 97.5496 92.5283ZM44.9699 66.9144C44.9699 62.4983 48.4898 58.9653 52.8898 58.9653C57.2898 58.9653 60.8098 62.4983 60.8098 66.9144C60.8098 71.3306 57.2898 74.8636 52.8898 74.8636C48.4898 74.8636 44.9699 71.3306 44.9699 66.9144ZM105.14 66.9144C105.14 71.3306 101.62 74.8636 97.2196 74.8636C92.8196 74.8636 89.2996 71.3306 89.2996 66.9144C89.2996 62.4983 92.8196 58.9653 97.2196 58.9653C101.62 58.9653 105.14 62.4983 105.14 66.9144Z" fill="url(#paint0_linear_706_21434)"/>
<defs>
<linearGradient id="paint0_linear_706_21434" x1="-12.5442" y1="97.8189" x2="49.4438" y2="3.32569" gradientUnits="userSpaceOnUse">
<stop stop-color="white"/>
<stop offset="1" stop-color="white"/>
</linearGradient>
</defs>
</svg>
