<svg width="120" height="99" viewBox="0 0 120 99" fill="none" xmlns="http://www.w3.org/2000/svg">
<path d="M83.4223 25.3347H63.6439V21.5318C67.9766 20.0227 71.0887 15.9179 71.0887 11.0768C71.0887 4.95587 66.1215 0 60 0C53.8785 0 48.9113 4.96191 48.9113 11.0768C48.9113 15.9179 52.0234 20.0227 56.3561 21.5318V25.3347H36.5777C16.4065 25.3347 0 41.7235 0 61.8729C0 82.0223 16.4065 98.4111 36.5777 98.4111H83.4223C103.587 98.4111 120 82.0223 120 61.8729C120 41.7235 103.594 25.3347 83.4223 25.3347ZM60 7.27988C62.0969 7.27988 63.801 8.98214 63.801 11.0768C63.801 13.1714 62.0969 14.8736 60 14.8736C57.9031 14.8736 56.199 13.1714 56.199 11.0768C56.199 8.98214 57.9031 7.27988 60 7.27988ZM83.4223 91.1252H36.5777C20.4311 91.1252 7.29379 78.0021 7.29379 61.8729C7.29379 45.7437 20.4311 32.6206 36.5777 32.6206H83.4223C99.5689 32.6206 112.706 45.7437 112.706 61.8729C112.706 78.0021 99.5689 91.1252 83.4223 91.1252Z" fill="white"/>
<path d="M34.161 42.664C24.1721 42.664 16.0746 50.7527 16.0746 60.7309C16.0746 70.709 24.1721 78.7977 34.161 78.7977C44.1499 78.7977 52.2474 70.709 52.2474 60.7309C52.2474 50.7527 44.1499 42.664 34.161 42.664ZM34.161 71.5118C28.2087 71.5118 23.3683 66.6767 23.3683 60.7309C23.3683 54.785 28.2087 49.9499 34.161 49.9499C40.1132 49.9499 44.9536 54.785 44.9536 60.7309C44.9536 66.6767 40.1132 71.5118 34.161 71.5118Z" fill="white"/>
<path d="M85.8401 42.6647C75.8512 42.6647 67.7537 50.7534 67.7537 60.7315C67.7537 70.7097 75.8512 78.7984 85.8401 78.7984C95.8291 78.7984 103.927 70.7097 103.927 60.7315C103.927 50.7534 95.8291 42.6647 85.8401 42.6647ZM85.8401 71.5125C79.8879 71.5125 75.0475 66.6774 75.0475 60.7315C75.0475 54.7857 79.8879 49.9506 85.8401 49.9506C91.7924 49.9506 96.6328 54.7857 96.6328 60.7315C96.6328 66.6774 91.7924 71.5125 85.8401 71.5125Z" fill="white"/>
<path d="M65.4397 78.8773C64.1707 80.0484 62.3216 80.646 59.9407 80.646C57.5598 80.646 55.7771 80.0725 54.5081 78.9437C53.0095 77.6036 50.7011 77.7364 49.3656 79.2395C48.0241 80.7425 48.157 83.0424 49.6617 84.3764C51.4806 85.9942 54.7377 87.9258 59.9407 87.9258C65.1436 87.9258 68.5579 85.9157 70.3889 84.2255C71.8694 82.8613 71.96 80.5554 70.5883 79.0825C69.2165 77.6097 66.9142 77.5191 65.4397 78.8833V78.8773Z" fill="white"/>
</svg>
